<svg data-v-fde0c5aa="" xmlns="http://www.w3.org/2000/svg" viewBox="0 0 300 300" class="iconLeftSlogan"><!----><defs data-v-fde0c5aa=""><!----></defs><rect data-v-fde0c5aa="" fill="#EBEAF4" x="0" y="0" width="300px" height="300px" class="logo-background-square"></rect><defs data-v-fde0c5aa=""><!----></defs><g data-v-fde0c5aa="" id="51582940-865f-4c64-b792-a1b4665d0d8d" fill="#2F2849" transform="matrix(2.7000677542483884,0,0,2.7000677542483884,152.72631128591416,113.90384525818874)"><path d="M1.19 4.72L1.19 4.72L1.19 4.72Q1.00 4.76 0.82 4.81L0.82 4.81L0.82 4.81Q0.67 4.87 0.49 4.93L0.49 4.93L0.49 4.93Q0.30 4.99 0.14 5.07L0.14 5.07L0.14 5.07Q0.08 4.87 0.03 4.62L0.03 4.62L0.03 4.62Q-0.01 4.38 0.01 4.15L0.01 4.15L0.01 4.15Q0.04 3.92 0.17 3.75L0.17 3.75L0.17 3.75Q0.30 3.58 0.62 3.55L0.62 3.55L0.62 3.55Q0.92 3.51 1.31 3.50L1.31 3.50L1.31 3.50Q1.71 3.49 2.14 3.49L2.14 3.49L2.14 3.49Q2.57 3.49 3.02 3.51L3.02 3.51L3.02 3.51Q3.47 3.53 3.91 3.58L3.91 3.58L3.91 3.58Q3.94 3.80 3.95 3.96L3.95 3.96L3.95 3.96Q3.96 4.12 3.96 4.22L3.96 4.22L3.96 4.44L3.96 4.44Q3.96 4.53 3.94 4.58L3.94 4.58L3.94 4.58Q3.88 4.72 3.75 4.76L3.75 4.76L3.75 4.76Q3.60 4.72 3.40 4.70L3.40 4.70L3.40 4.70Q3.20 4.68 3.01 4.65L3.01 4.65L3.01 4.65Q2.79 4.62 2.56 4.61L2.56 4.61L2.56 4.61Q2.58 5.09 2.60 6.00L2.60 6.00L2.60 6.00Q2.63 6.90 2.60 8.38L2.60 8.38L2.60 8.38Q2.57 9.88 2.55 10.83L2.55 10.83L2.55 10.83Q2.53 11.79 2.52 12.30L2.52 12.30L2.52 12.30Q3.04 12.35 3.29 12.48L3.29 12.48L3.29 12.48Q3.54 12.61 3.63 12.78L3.63 12.78L3.63 12.78Q3.72 12.95 3.70 13.15L3.70 13.15L3.70 13.15Q3.68 13.36 3.66 13.55L3.66 13.55L3.66 13.55Q3.43 13.49 3.14 13.47L3.14 13.47L3.14 13.47Q2.84 13.45 2.58 13.45L2.58 13.45L2.58 13.45Q2.28 13.45 1.97 13.48L1.97 13.48L1.97 13.48Q1.61 13.51 1.29 13.56L1.29 13.56L1.29 13.56Q1.01 13.62 0.74 13.70L0.74 13.70L0.74 13.70Q0.46 13.78 0.33 13.93L0.33 13.93L0.33 13.93Q0.22 13.73 0.16 13.49L0.16 13.49L0.16 13.49Q0.11 13.30 0.08 13.04L0.08 13.04L0.08 13.04Q0.05 12.78 0.10 12.51L0.10 12.51L0.10 12.51Q0.25 12.46 0.44 12.42L0.44 12.42L0.44 12.42Q0.63 12.39 0.79 12.36L0.79 12.36L0.79 12.36Q0.98 12.33 1.19 12.32L1.19 12.32L1.19 12.32Q1.22 11.88 1.26 11.09L1.26 11.09L1.26 11.09Q1.30 10.31 1.33 8.98L1.33 8.98L1.33 8.98Q1.35 7.31 1.30 6.27L1.30 6.27L1.30 6.27Q1.24 5.22 1.19 4.72ZM4.18 11.80L4.18 11.80L4.18 11.80Q4.31 11.69 4.57 11.62L4.57 11.62L4.57 11.62Q4.83 11.55 5.13 11.52L5.13 11.52L5.13 11.52Q5.44 11.48 5.77 11.48L5.77 11.48L5.77 11.48Q6.10 11.47 6.37 11.48L6.37 11.48L6.37 11.48Q6.93 11.50 7.62 11.53L7.62 11.53L7.62 11.53Q8.20 11.55 9.00 11.59L9.00 11.59L9.00 11.59Q9.79 11.62 10.73 11.66L10.73 11.66L10.73 11.66Q10.71 12.15 10.51 12.41L10.51 12.41L10.51 12.41Q10.32 12.67 9.86 12.65L9.86 12.65L9.86 12.65Q9.63 12.63 9.30 12.61L9.30 12.61L9.30 12.61Q8.97 12.58 8.58 12.56L8.58 12.56L8.58 12.56Q8.19 12.55 7.75 12.54L7.75 12.54L7.75 12.54Q7.31 12.54 6.88 12.56L6.88 12.56L6.88 12.56Q6.40 12.56 5.91 12.58L5.91 12.58L5.91 12.58Q5.48 12.61 4.96 12.64L4.96 12.64L4.96 12.64Q4.44 12.67 3.96 12.74L3.96 12.74L3.96 12.74Q3.88 12.52 3.90 12.35L3.90 12.35L3.90 12.35Q3.92 12.18 3.99 12.06L3.99 12.06L3.99 12.06Q4.06 11.91 4.18 11.80ZM18.48 13.23L18.48 13.23L18.48 13.23Q18.35 13.43 18.17 13.53L18.17 13.53L18.17 13.53Q17.99 13.63 17.83 13.67L17.83 13.67L17.83 13.67Q17.64 13.73 17.42 13.71L17.42 13.71L17.42 13.71Q17.34 13.71 17.24 13.67L17.24 13.67L17.24 13.67Q17.16 13.64 17.06 13.60L17.06 13.60L17.06 13.60Q16.97 13.55 16.90 13.45L16.90 13.45L16.90 13.45Q16.71 12.77 16.56 12.13L16.56 12.13L16.56 12.13Q16.41 11.48 16.30 10.98L16.30 10.98L16.30 10.98Q16.16 10.39 16.06 9.87L16.06 9.87L16.06 9.87Q15.70 9.86 14.96 9.86L14.96 9.86L14.96 9.86Q14.23 9.87 13.38 9.95L13.38 9.95L13.38 9.95Q13.13 10.77 12.97 11.33L12.97 11.33L12.97 11.33Q12.82 11.89 12.76 12.26L12.76 12.26L12.76 12.26Q12.69 12.63 12.70 12.87L12.70 12.87L12.70 12.87Q12.71 13.11 12.78 13.29L12.78 13.29L12.78 13.29Q12.59 13.48 12.41 13.57L12.41 13.57L12.41 13.57Q12.22 13.66 12.07 13.69L12.07 13.69L12.07 13.69Q11.89 13.73 11.73 13.71L11.73 13.71L11.73 13.71Q11.51 13.69 11.38 13.64L11.38 13.64L11.38 13.64Q11.24 13.59 11.18 13.49L11.18 13.49L11.18 13.49Q11.12 13.38 11.14 13.19L11.14 13.19L11.14 13.19Q11.16 13.00 11.24 12.69L11.24 12.69L11.24 12.69Q11.32 12.41 11.55 11.71L11.55 11.71L11.55 11.71Q11.77 11.01 12.06 10.10L12.06 10.10L12.06 10.10Q11.54 10.14 11.26 10.05L11.26 10.05L11.26 10.05Q10.98 9.95 10.87 9.53L10.87 9.53L10.87 9.53Q11.09 9.46 11.34 9.40L11.34 9.40L11.34 9.40Q11.59 9.34 11.83 9.28L11.83 9.28L11.83 9.28Q12.09 9.23 12.36 9.19L12.36 9.19L12.36 9.19Q12.65 8.29 12.95 7.41L12.95 7.41L12.95 7.41Q13.25 6.54 13.51 5.84L13.51 5.84L14.30 3.72L14.30 3.72Q14.33 3.64 14.59 3.54L14.59 3.54L14.59 3.54Q14.85 3.45 15.16 3.38L15.16 3.38L15.16 3.38Q15.48 3.32 15.76 3.32L15.76 3.32L15.76 3.32Q16.05 3.32 16.13 3.45L16.13 3.45L16.13 3.45Q16.17 3.73 16.25 4.16L16.25 4.16L16.25 4.16Q16.32 4.58 16.39 4.98L16.39 4.98L16.39 4.98Q16.47 5.44 16.58 5.93L16.58 5.93L16.58 5.93Q16.71 6.62 16.85 7.45L16.85 7.45L16.85 7.45Q16.99 8.29 17.21 9.23L17.21 9.23L17.21 9.23Q17.43 10.17 17.73 11.18L17.73 11.18L17.73 11.18Q18.03 12.20 18.48 13.23ZM14.68 8.96L14.68 8.96L14.68 8.96Q15.12 8.94 15.41 8.94L15.41 8.94L15.41 8.94Q15.70 8.94 15.90 8.96L15.90 8.96L15.86 8.75L15.86 8.75Q15.78 8.24 15.69 7.67L15.69 7.67L15.69 7.67Q15.60 7.10 15.51 6.54L15.51 6.54L15.51 6.54Q15.42 5.97 15.34 5.47L15.34 5.47L15.34 5.47Q15.26 4.96 15.20 4.58L15.20 4.58L15.20 4.58Q15.07 4.94 14.89 5.43L14.89 5.43L14.89 5.43Q14.71 5.93 14.51 6.52L14.51 6.52L14.51 6.52Q14.30 7.11 14.09 7.75L14.09 7.75L14.09 7.75Q13.88 8.39 13.67 9.02L13.67 9.02L13.67 9.02Q13.92 9.00 14.16 8.98L14.16 8.98L14.16 8.98Q14.41 8.97 14.68 8.96ZM23.43 3.88L23.43 3.88L23.43 3.88Q23.43 4.03 23.41 4.47L23.41 4.47L23.41 4.47Q23.38 4.91 23.34 5.52L23.34 5.52L23.34 5.52Q23.30 6.14 23.26 6.88L23.26 6.88L23.26 6.88Q23.21 7.62 23.19 8.38L23.19 8.38L23.19 8.38Q23.16 9.15 23.14 9.81L23.14 9.81L23.14 9.81Q23.12 10.47 23.13 10.99L23.13 10.99L23.13 10.99Q23.13 11.51 23.17 11.86L23.17 11.86L23.17 11.86Q23.21 12.21 23.30 12.33L23.30 12.33L22.68 12.56L22.68 12.56Q22.61 12.59 22.52 12.59L22.52 12.59L22.52 12.59Q22.42 12.59 22.32 12.54L22.32 12.54L22.32 12.54Q22.22 12.48 22.15 12.35L22.15 12.35L22.15 12.35Q22.08 12.21 22.08 11.96L22.08 11.96L22.08 11.96Q22.08 11.87 22.09 11.72L22.09 11.72L22.09 11.72Q22.09 11.58 22.09 11.39L22.09 11.39L22.09 11.39Q21.93 11.66 21.74 11.92L21.74 11.92L21.74 11.92Q21.55 12.18 21.32 12.37L21.32 12.37L21.32 12.37Q21.10 12.56 20.84 12.68L20.84 12.68L20.84 12.68Q20.58 12.80 20.29 12.80L20.29 12.80L20.29 12.80Q20.02 12.80 19.76 12.68L19.76 12.68L19.76 12.68Q19.50 12.56 19.29 12.33L19.29 12.33L19.29 12.33Q19.09 12.10 18.96 11.73L18.96 11.73L18.96 11.73Q18.83 11.36 18.83 10.84L18.83 10.84L18.83 10.84Q18.83 9.90 19.04 9.19L19.04 9.19L19.04 9.19Q19.26 8.49 19.60 8.02L19.60 8.02L19.60 8.02Q19.93 7.55 20.32 7.31L20.32 7.31L20.32 7.31Q20.71 7.07 21.04 7.07L21.04 7.07L21.04 7.07Q21.55 7.07 21.82 7.33L21.82 7.33L21.82 7.33Q22.09 7.60 22.22 7.89L22.22 7.89L22.22 7.89Q22.23 7.49 22.24 7.14L22.24 7.14L22.24 7.14Q22.24 6.79 22.24 6.55L22.24 6.55L22.24 6.55Q22.24 5.54 22.20 4.74L22.20 4.74L22.20 4.74Q22.16 3.95 22.00 3.54L22.00 3.54L22.00 3.54Q22.19 3.43 22.35 3.38L22.35 3.38L22.35 3.38Q22.50 3.32 22.63 3.29L22.63 3.29L22.63 3.29Q22.78 3.25 22.89 3.25L22.89 3.25L22.89 3.25Q23.19 3.25 23.31 3.42L23.31 3.42L23.31 3.42Q23.43 3.60 23.43 3.88ZM22.13 10.23L22.13 10.23L22.13 10.23Q22.16 9.87 22.17 9.48L22.17 9.48L22.17 9.48Q22.18 9.09 22.19 8.70L22.19 8.70L22.19 8.70Q22.09 8.85 21.96 8.96L21.96 8.96L21.96 8.96Q21.83 9.06 21.68 9.01L21.68 9.01L21.68 9.01Q21.74 8.60 21.68 8.38L21.68 8.38L21.68 8.38Q21.62 8.16 21.51 8.05L21.51 8.05L21.51 8.05Q21.38 7.93 21.22 7.92L21.22 7.92L21.22 7.92Q20.97 7.92 20.73 8.19L20.73 8.19L20.73 8.19Q20.49 8.46 20.31 8.87L20.31 8.87L20.31 8.87Q20.13 9.27 20.02 9.73L20.02 9.73L20.02 9.73Q19.91 10.19 19.91 10.57L19.91 10.57L19.91 10.57Q19.91 11.33 20.12 11.63L20.12 11.63L20.12 11.63Q20.33 11.94 20.58 11.94L20.58 11.94L20.58 11.94Q20.78 11.94 21.01 11.77L21.01 11.77L21.01 11.77Q21.23 11.61 21.44 11.35L21.44 11.35L21.44 11.35Q21.66 11.09 21.84 10.79L21.84 10.79L21.84 10.79Q22.03 10.50 22.13 10.23ZM28.18 11.87L28.18 11.87L28.18 11.87Q28.21 11.96 28.26 12.04L28.26 12.04L28.26 12.04Q28.30 12.11 28.38 12.17L28.38 12.17L28.38 12.17Q28.45 12.24 28.56 12.25L28.56 12.25L28.56 12.25Q28.46 12.44 28.37 12.51L28.37 12.51L28.37 12.51Q28.31 12.55 28.27 12.56L28.27 12.56L28.27 12.56Q28.15 12.61 27.90 12.61L27.90 12.61L27.90 12.61Q27.66 12.61 27.43 12.46L27.43 12.46L27.43 12.46Q27.34 12.39 27.28 12.25L27.28 12.25L27.28 12.25Q27.21 12.14 27.16 11.94L27.16 11.94L27.16 11.94Q27.11 11.74 27.08 11.43L27.08 11.43L27.08 11.43Q26.89 11.84 26.65 12.08L26.65 12.08L26.65 12.08Q26.41 12.32 26.18 12.43L26.18 12.43L26.18 12.43Q25.92 12.58 25.65 12.61L25.65 12.61L25.65 12.61Q25.31 12.63 25.00 12.49L25.00 12.49L25.00 12.49Q24.69 12.35 24.48 12.05L24.48 12.05L24.48 12.05Q24.27 11.76 24.16 11.33L24.16 11.33L24.16 11.33Q24.05 10.91 24.09 10.38L24.09 10.38L24.09 10.38Q24.13 9.82 24.31 9.38L24.31 9.38L24.31 9.38Q24.49 8.94 24.73 8.60L24.73 8.60L24.73 8.60Q24.98 8.26 25.25 8.02L25.25 8.02L25.25 8.02Q25.53 7.78 25.78 7.62L25.78 7.62L25.78 7.62Q26.03 7.46 26.22 7.39L26.22 7.39L26.22 7.39Q26.40 7.31 26.46 7.30L26.46 7.30L26.46 7.30Q26.61 7.26 26.71 7.27L26.71 7.27L26.71 7.27Q26.82 7.29 26.91 7.40L26.91 7.40L26.91 7.40Q26.93 7.44 26.97 7.49L26.97 7.49L26.97 7.49Q27.00 7.55 27.04 7.64L27.04 7.64L27.04 7.64Q27.08 7.72 27.11 7.83L27.11 7.83L27.11 7.83Q26.78 7.98 26.50 8.17L26.50 8.17L26.50 8.17Q26.21 8.35 25.97 8.61L25.97 8.61L25.97 8.61Q25.73 8.87 25.55 9.24L25.55 9.24L25.55 9.24Q25.38 9.61 25.28 10.14L25.28 10.14L25.28 10.14Q25.14 10.81 25.35 11.22L25.35 11.22L25.35 11.22Q25.57 11.63 25.94 11.57L25.94 11.57L25.94 11.57Q26.15 11.50 26.36 11.31L26.36 11.31L26.36 11.31Q26.54 11.14 26.74 10.81L26.74 10.81L26.74 10.81Q26.93 10.49 27.11 9.91L27.11 9.91L27.11 9.91Q27.18 9.09 27.23 8.62L27.23 8.62L27.23 8.62Q27.28 8.15 27.32 7.90L27.32 7.90L27.32 7.90Q27.37 7.62 27.40 7.52L27.40 7.52L27.40 7.52Q27.44 7.45 27.56 7.39L27.56 7.39L27.56 7.39Q27.69 7.33 27.84 7.29L27.84 7.29L27.84 7.29Q27.99 7.25 28.11 7.24L28.11 7.24L28.11 7.24Q28.23 7.23 28.27 7.25L28.27 7.25L28.27 7.25Q28.30 7.26 28.30 7.58L28.30 7.58L28.30 7.58Q28.30 7.90 28.28 8.39L28.28 8.39L28.28 8.39Q28.26 8.87 28.23 9.44L28.23 9.44L28.23 9.44Q28.21 10.01 28.18 10.51L28.18 10.51L28.18 10.51Q28.16 11.02 28.16 11.40L28.16 11.40L28.16 11.40Q28.15 11.77 28.18 11.87ZM32.02 7.15L32.02 7.15L32.02 7.15Q32.40 7.15 32.73 7.37L32.73 7.37L32.73 7.37Q33.06 7.59 33.29 7.94L33.29 7.94L33.29 7.94Q33.52 8.30 33.66 8.76L33.66 8.76L33.66 8.76Q33.80 9.21 33.80 9.71L33.80 9.71L33.80 9.71Q33.80 10.20 33.69 10.75L33.69 10.75L33.69 10.75Q33.58 11.29 33.35 11.76L33.35 11.76L33.35 11.76Q33.11 12.22 32.74 12.53L32.74 12.53L32.74 12.53Q32.38 12.84 31.84 12.84L31.84 12.84L31.84 12.84Q31.42 12.84 31.04 12.53L31.04 12.53L31.04 12.53Q30.67 12.22 30.46 11.76L30.46 11.76L30.46 11.76Q30.43 12.24 30.34 12.74L30.34 12.74L30.34 12.74Q30.24 13.23 30.24 13.93L30.24 13.93L30.24 13.93Q30.24 14.14 30.26 14.40L30.26 14.40L30.26 14.40Q30.27 14.66 30.30 14.92L30.30 14.92L30.30 14.92Q30.32 15.18 30.38 15.39L30.38 15.39L30.38 15.39Q30.43 15.61 30.50 15.74L30.50 15.74L30.50 15.74Q30.27 15.87 30.08 15.94L30.08 15.94L30.08 15.94Q29.90 16.01 29.76 16.04L29.76 16.04L29.76 16.04Q29.61 16.08 29.48 16.08L29.48 16.08L29.48 16.08Q29.30 16.08 29.24 15.93L29.24 15.93L29.24 15.93Q29.19 15.78 29.19 15.39L29.19 15.39L29.19 15.39Q29.19 15.15 29.21 14.69L29.21 14.69L29.21 14.69Q29.23 14.23 29.26 13.64L29.26 13.64L29.26 13.64Q29.30 13.06 29.33 12.41L29.33 12.41L29.33 12.41Q29.37 11.76 29.40 11.13L29.40 11.13L29.40 11.13Q29.44 10.50 29.46 9.96L29.46 9.96L29.46 9.96Q29.48 9.42 29.48 9.05L29.48 9.05L29.48 9.05Q29.48 8.60 29.46 8.35L29.46 8.35L29.46 8.35Q29.45 8.09 29.43 7.96L29.43 7.96L29.43 7.96Q29.41 7.83 29.38 7.78L29.38 7.78L29.38 7.78Q29.35 7.72 29.31 7.66L29.31 7.66L29.31 7.66Q29.44 7.56 29.61 7.49L29.61 7.49L29.61 7.49Q29.78 7.41 29.95 7.38L29.95 7.38L29.95 7.38Q30.12 7.34 30.26 7.36L30.26 7.36L30.26 7.36Q30.41 7.37 30.49 7.42L30.49 7.42L30.49 7.42Q30.56 7.49 30.59 7.63L30.59 7.63L30.59 7.63Q30.63 7.77 30.65 8.04L30.65 8.04L30.65 8.04Q30.91 7.68 31.25 7.42L31.25 7.42L31.25 7.42Q31.58 7.15 32.02 7.15ZM31.49 12.03L31.49 12.03L31.49 12.03Q31.73 12.03 31.96 11.80L31.96 11.80L31.96 11.80Q32.18 11.57 32.35 11.20L32.35 11.20L32.35 11.20Q32.53 10.84 32.63 10.40L32.63 10.40L32.63 10.40Q32.73 9.95 32.73 9.52L32.73 9.52L32.73 9.52Q32.73 9.04 32.64 8.73L32.64 8.73L32.64 8.73Q32.55 8.42 32.42 8.24L32.42 8.24L32.42 8.24Q32.29 8.05 32.15 7.98L32.15 7.98L32.15 7.98Q32.01 7.90 31.90 7.90L31.90 7.90L31.90 7.90Q31.64 7.90 31.40 8.11L31.40 8.11L31.40 8.11Q31.17 8.33 30.99 8.66L30.99 8.66L30.99 8.66Q30.82 9.00 30.71 9.41L30.71 9.41L30.71 9.41Q30.61 9.82 30.61 10.23L30.61 10.23L30.61 10.23Q30.61 10.61 30.69 10.94L30.69 10.94L30.69 10.94Q30.76 11.27 30.88 11.51L30.88 11.51L30.88 11.51Q31.01 11.76 31.17 11.89L31.17 11.89L31.17 11.89Q31.32 12.03 31.49 12.03ZM39.73 6.48L39.73 6.48L39.73 6.48Q39.58 6.45 39.33 6.43L39.33 6.43L39.33 6.43Q39.07 6.40 38.81 6.38L38.81 6.38L38.81 6.38Q38.51 6.37 38.17 6.37L38.17 6.37L38.17 6.37Q37.83 6.34 37.32 6.36L37.32 6.36L37.32 6.36Q36.80 6.38 36.24 6.38L36.24 6.38L36.24 6.38Q36.23 6.74 36.20 7.11L36.20 7.11L36.20 7.11Q36.16 7.48 36.13 7.83L36.13 7.83L36.13 7.83Q36.07 8.49 36.02 9.17L36.02 9.17L36.02 9.17Q35.97 9.86 35.97 10.47L35.97 10.47L35.97 10.47Q35.97 11.09 36.05 11.59L36.05 11.59L36.05 11.59Q36.12 12.09 36.33 12.37L36.33 12.37L36.33 12.37Q36.16 12.50 35.97 12.56L35.97 12.56L35.97 12.56Q35.78 12.62 35.63 12.65L35.63 12.65L35.63 12.65Q35.45 12.69 35.27 12.69L35.27 12.69L35.27 12.69Q35.11 12.69 35 12.58L35 12.58L35 12.58Q34.89 12.47 34.88 12.20L34.88 12.20L34.88 12.20Q34.85 11.73 34.87 11.26L34.87 11.26L34.87 11.26Q34.89 10.79 34.92 10.27L34.92 10.27L34.92 10.27Q34.96 9.75 35 9.15L35 9.15L35 9.15Q35.04 8.56 35.08 7.85L35.08 7.85L35.08 7.85Q35.12 7.11 35.12 6.41L35.12 6.41L35.12 6.41Q34.60 6.43 34.25 6.43L34.25 6.43L34.25 6.43Q33.89 6.43 33.85 6.41L33.85 6.41L33.85 6.41Q33.81 6.38 33.76 6.29L33.76 6.29L33.76 6.29Q33.70 6.21 33.61 6.04L33.61 6.04L33.61 6.04Q33.52 5.88 33.39 5.58L33.39 5.58L33.39 5.58Q33.65 5.58 33.95 5.58L33.95 5.58L33.95 5.58Q34.26 5.58 34.52 5.56L34.52 5.56L34.52 5.56Q34.82 5.55 35.12 5.54L35.12 5.54L35.12 5.54Q35.11 5.32 35.11 5.07L35.11 5.07L35.11 5.07Q35.10 4.88 35.10 4.64L35.10 4.64L35.10 4.64Q35.10 4.40 35.08 4.20L35.08 4.20L35.08 4.20Q35.08 4.12 35.28 4.00L35.28 4.00L35.28 4.00Q35.48 3.88 35.71 3.79L35.71 3.79L35.71 3.79Q35.94 3.69 36.14 3.66L36.14 3.66L36.14 3.66Q36.34 3.64 36.34 3.76L36.34 3.76L36.34 3.76Q36.34 3.88 36.33 4.35L36.33 4.35L36.33 4.35Q36.33 4.83 36.30 5.50L36.30 5.50L36.30 5.50Q36.44 5.50 36.50 5.48L36.50 5.48L36.50 5.48Q37.23 5.46 37.67 5.42L37.67 5.42L37.67 5.42Q38.12 5.39 38.40 5.41L38.40 5.41L38.40 5.41Q38.69 5.44 38.91 5.55L38.91 5.55L38.91 5.55Q39.13 5.66 39.40 5.91L39.40 5.91L39.40 5.91Q39.50 5.99 39.57 6.08L39.57 6.08L39.57 6.08Q39.63 6.17 39.68 6.27L39.68 6.27L39.68 6.27Q39.73 6.37 39.73 6.48Z"></path></g><defs data-v-fde0c5aa=""><linearGradient data-v-fde0c5aa="" gradientTransform="rotate(25)" id="68c074eb-4c9d-4ff2-97ae-69ea47b066c8" x1="0%" y1="0%" x2="100%" y2="0%"><stop data-v-fde0c5aa="" offset="0%" stop-color="#E98E0D" stop-opacity="1"></stop><stop data-v-fde0c5aa="" offset="100%" stop-color="#1536F1" stop-opacity="1"></stop></linearGradient></defs><g data-v-fde0c5aa="" id="34218406-4aaa-4ecd-9886-579635ec52c0" stroke="none" fill="url(#68c074eb-4c9d-4ff2-97ae-69ea47b066c8)" transform="matrix(4.155567304977726,0,0,4.155567304977726,40.00380157287858,116.75950288837878)"><g><path d="M16.243 12.15l-.078.07c-2.407 2.374-6.313 2.374-8.72 0l-4.91-4.187 4.862-4.21c2.455-2.417 6.361-2.417 8.768-.043l5.24 4.252-5.162 4.119zm7.38-3.33a1 1 0 0 0 .007-1.558L17.497 2.29C14.384-.785 9.227-.785 6.04 2.355L.346 7.282A1 1 0 0 0 .35 8.8l5.743 4.894c3.12 3.079 8.248 3.091 11.436-.012l6.094-4.862z"></path><path d="M18.553 12.666a1 1 0 0 0 .204-.243A8.86 8.86 0 0 0 20 7.879a8.91 8.91 0 0 0-.927-3.973 1 1 0 0 0-.234-.305l-1.457-1.283C14.486-.795 9.645-.795 6.679 2.386L4.978 3.984a1 1 0 0 0-.232.328 8.9 8.9 0 0 0 .261 7.678 1 1 0 0 0 .207.27l1.516 1.406c2.903 3.116 7.715 3.129 10.685-.012l1.138-.988zm-2.487-.49l-.076.074c-2.176 2.333-5.673 2.333-7.849 0l-1.436-1.334a6.893 6.893 0 0 1-.202-5.62l1.592-1.5c2.222-2.379 5.719-2.379 7.895-.046l1.374 1.216A6.92 6.92 0 0 1 18 7.88c0 1.21-.31 2.37-.883 3.386l-1.051.912z"></path><path d="M14 8a2 2 0 1 1-4 0 2 2 0 0 1 4 0zm2 0a4 4 0 1 0-8 0 4 4 0 0 0 8 0z"></path></g></g><defs data-v-fde0c5aa=""><!----></defs><g data-v-fde0c5aa="" id="1548fadb-0711-42fe-84e9-7950d1fa5202" fill="#2F2849" transform="matrix(0.383704858435663,0,0,0.383704858435663,152.4667181118768,165.92808586047101)"><path d="M7.07 11.97C6.87 11.97 6.79 12.08 6.78 12.31C6.78 12.32 6.78 12.38 6.76 12.43C6.75 12.49 6.75 12.59 6.73 12.71C6.72 12.84 6.71 13.01 6.69 13.20L2.60 13.20L2.60 4.47C2.77 4.47 2.91 4.45 3.05 4.45C3.19 4.45 3.30 4.44 3.37 4.44L3.50 4.44C3.68 4.42 3.78 4.34 3.78 4.19L3.78 3.92L2.60 3.92L1.89 3.92L0.70 3.92L0.70 4.19C0.70 4.34 0.80 4.42 0.98 4.44L1.12 4.44C1.19 4.44 1.29 4.45 1.43 4.45C1.57 4.45 1.72 4.47 1.89 4.47L1.89 13.26C1.72 13.26 1.57 13.27 1.43 13.27C1.29 13.27 1.19 13.29 1.12 13.29L0.98 13.29C0.80 13.30 0.70 13.38 0.70 13.54L0.70 13.82L1.89 13.82L7.17 13.82L7.29 13.82L7.42 13.82L7.42 13.55L7.42 12.99L7.42 11.97L7.14 11.97ZM18.61 6.73C18.12 6.73 17.67 6.83 17.28 7.00C16.88 7.17 16.56 7.41 16.30 7.71C16.03 8.02 15.82 8.39 15.68 8.81C15.54 9.23 15.46 9.69 15.46 10.19C15.46 10.78 15.54 11.31 15.69 11.77C15.85 12.24 16.06 12.61 16.34 12.94C16.62 13.26 16.95 13.50 17.35 13.66C17.74 13.83 18.17 13.90 18.65 13.90C18.91 13.90 19.18 13.89 19.43 13.83C19.68 13.78 19.94 13.71 20.16 13.62C20.38 13.54 20.59 13.44 20.78 13.31C20.96 13.19 21.11 13.06 21.22 12.92L21.04 12.70C21.01 12.66 20.96 12.63 20.90 12.63C20.86 12.63 20.78 12.66 20.68 12.74C20.58 12.82 20.44 12.91 20.26 13.01C20.09 13.10 19.87 13.17 19.61 13.26C19.36 13.34 19.05 13.38 18.70 13.38C18.31 13.38 17.96 13.31 17.64 13.17C17.32 13.03 17.05 12.84 16.83 12.57C16.60 12.31 16.44 11.97 16.31 11.58C16.18 11.19 16.13 10.71 16.13 10.19L16.13 10.07L21.15 10.07C21.22 10.07 21.27 10.05 21.29 10.01C21.32 9.97 21.35 9.90 21.35 9.80C21.35 9.31 21.28 8.88 21.14 8.50C21 8.12 20.82 7.78 20.57 7.53C20.33 7.28 20.03 7.08 19.70 6.94C19.36 6.80 19.00 6.73 18.61 6.73ZM18.62 7.24C18.94 7.24 19.22 7.29 19.49 7.41C19.75 7.52 19.98 7.67 20.16 7.88C20.34 8.09 20.50 8.33 20.59 8.62C20.69 8.92 20.75 9.25 20.75 9.63L16.16 9.63C16.20 9.27 16.28 8.93 16.41 8.64C16.53 8.34 16.70 8.09 16.91 7.88C17.12 7.67 17.37 7.52 17.65 7.41C17.93 7.29 18.26 7.24 18.62 7.24ZM31.79 13.93C32.09 13.93 32.37 13.86 32.65 13.75C32.91 13.64 33.14 13.48 33.32 13.29L33.14 12.98C33.10 12.94 33.07 12.92 33.03 12.92C33.00 12.92 32.94 12.94 32.89 12.99C32.83 13.05 32.76 13.09 32.68 13.15C32.59 13.20 32.48 13.26 32.35 13.31C32.23 13.37 32.10 13.38 31.93 13.38C31.79 13.38 31.65 13.36 31.54 13.31C31.43 13.27 31.33 13.20 31.25 13.12C31.16 13.03 31.09 12.92 31.04 12.78C30.98 12.64 30.97 12.49 30.97 12.29L30.97 7.57L33.17 7.57L33.17 7.07L30.97 7.07L30.97 4.41L30.65 4.41C30.59 4.41 30.56 4.44 30.53 4.47C30.51 4.49 30.48 4.54 30.48 4.58L30.31 7.07L29.12 7.15L29.12 7.41C29.12 7.46 29.13 7.49 29.16 7.52C29.19 7.55 29.25 7.57 29.30 7.57L30.30 7.57L30.30 12.33C30.30 12.88 30.42 13.27 30.69 13.54C30.95 13.80 31.32 13.93 31.79 13.93ZM46.10 11.06C45.99 10.86 45.85 10.71 45.67 10.57C45.49 10.43 45.28 10.32 45.05 10.23C44.83 10.15 44.58 10.05 44.34 9.98C44.10 9.91 43.86 9.83 43.62 9.76C43.40 9.69 43.19 9.59 43.01 9.49C42.83 9.39 42.69 9.27 42.57 9.13C42.46 8.99 42.41 8.81 42.41 8.58C42.41 8.40 42.43 8.23 42.52 8.08C42.60 7.92 42.71 7.77 42.87 7.64C43.01 7.52 43.19 7.43 43.40 7.36C43.61 7.29 43.83 7.25 44.09 7.25C44.45 7.25 44.81 7.31 45.19 7.43C45.21 7.60 45.22 7.77 45.23 7.92C45.25 8.08 45.25 8.19 45.26 8.27C45.28 8.36 45.28 8.43 45.28 8.44C45.29 8.67 45.39 8.78 45.58 8.78L45.92 8.78L45.92 7.11C45.19 6.86 44.58 6.75 44.07 6.75C43.72 6.75 43.40 6.80 43.12 6.90C42.84 7.00 42.59 7.14 42.39 7.31C42.20 7.48 42.04 7.69 41.93 7.91C41.82 8.13 41.78 8.37 41.78 8.62C41.78 8.92 41.83 9.16 41.94 9.35C42.06 9.55 42.20 9.70 42.38 9.84C42.56 9.98 42.76 10.09 42.99 10.18C43.22 10.26 43.46 10.35 43.71 10.42C43.95 10.49 44.18 10.57 44.42 10.64C44.65 10.71 44.86 10.81 45.04 10.92C45.22 11.03 45.37 11.16 45.49 11.31C45.60 11.47 45.65 11.65 45.65 11.89C45.65 12.10 45.61 12.29 45.54 12.49C45.46 12.68 45.35 12.84 45.19 12.98C45.04 13.12 44.86 13.23 44.63 13.31C44.41 13.40 44.16 13.44 43.86 13.44C43.33 13.44 42.88 13.37 42.50 13.22C42.49 13.03 42.48 12.87 42.46 12.71C42.45 12.56 42.45 12.43 42.43 12.35C42.42 12.26 42.42 12.19 42.42 12.18C42.41 11.96 42.31 11.84 42.11 11.84L41.78 11.84L41.78 13.54C42.45 13.79 43.13 13.93 43.83 13.93C44.23 13.93 44.56 13.87 44.87 13.76C45.18 13.65 45.43 13.50 45.64 13.30C45.85 13.10 46.00 12.89 46.12 12.63C46.23 12.36 46.28 12.08 46.28 11.77C46.28 11.49 46.21 11.26 46.10 11.06ZM69.43 6.80C69.24 6.76 69.06 6.73 68.85 6.73C68.31 6.73 67.84 6.89 67.47 7.21C67.09 7.53 66.79 7.98 66.57 8.54L66.51 7.07C66.51 6.99 66.49 6.93 66.46 6.90C66.43 6.87 66.37 6.86 66.29 6.86L65.94 6.86L65.94 6.86L64.93 6.86L64.93 7.13C64.93 7.31 65.03 7.36 65.20 7.38C65.28 7.38 65.37 7.38 65.94 7.41L65.94 13.26C65.37 13.29 65.28 13.29 65.20 13.29C65.03 13.30 64.93 13.36 64.93 13.54L64.93 13.82L65.94 13.82L66.60 13.82L66.60 13.82L67.61 13.82L67.61 13.54C67.61 13.36 67.51 13.30 67.34 13.29C67.26 13.29 67.17 13.29 66.60 13.26L66.60 9.30C66.81 8.68 67.09 8.20 67.42 7.88C67.76 7.56 68.19 7.39 68.73 7.39C68.87 7.39 68.99 7.41 69.10 7.42C69.22 7.43 69.33 7.45 69.40 7.48C69.48 7.50 69.52 7.53 69.58 7.55C69.64 7.56 69.68 7.57 69.71 7.57C69.79 7.57 69.83 7.53 69.85 7.46L69.93 7.00C69.78 6.92 69.61 6.85 69.43 6.80ZM80.88 6.73C80.39 6.73 79.94 6.83 79.55 7.00C79.16 7.17 78.83 7.41 78.57 7.71C78.30 8.02 78.09 8.39 77.95 8.81C77.81 9.23 77.73 9.69 77.73 10.19C77.73 10.78 77.81 11.31 77.97 11.77C78.12 12.24 78.33 12.61 78.61 12.94C78.89 13.26 79.23 13.50 79.62 13.66C80.01 13.83 80.44 13.90 80.92 13.90C81.19 13.90 81.45 13.89 81.70 13.83C81.96 13.78 82.21 13.71 82.43 13.62C82.66 13.54 82.87 13.44 83.05 13.31C83.23 13.19 83.38 13.06 83.50 12.92L83.31 12.70C83.29 12.66 83.23 12.63 83.17 12.63C83.13 12.63 83.05 12.66 82.95 12.74C82.85 12.82 82.71 12.91 82.53 13.01C82.36 13.10 82.14 13.17 81.89 13.26C81.63 13.34 81.33 13.38 80.98 13.38C80.58 13.38 80.23 13.31 79.91 13.17C79.59 13.03 79.32 12.84 79.10 12.57C78.88 12.31 78.71 11.97 78.58 11.58C78.46 11.19 78.40 10.71 78.40 10.19L78.40 10.07L83.43 10.07C83.50 10.07 83.54 10.05 83.57 10.01C83.59 9.97 83.62 9.90 83.62 9.80C83.62 9.31 83.55 8.88 83.41 8.50C83.27 8.12 83.09 7.78 82.84 7.53C82.60 7.28 82.31 7.08 81.97 6.94C81.63 6.80 81.27 6.73 80.88 6.73ZM80.89 7.24C81.21 7.24 81.49 7.29 81.76 7.41C82.03 7.52 82.25 7.67 82.43 7.88C82.61 8.09 82.77 8.33 82.87 8.62C82.96 8.92 83.02 9.25 83.02 9.63L78.43 9.63C78.47 9.27 78.55 8.93 78.68 8.64C78.81 8.34 78.97 8.09 79.18 7.88C79.39 7.67 79.65 7.52 79.93 7.41C80.21 7.29 80.53 7.24 80.89 7.24ZM96.88 12.70C96.85 12.66 96.80 12.63 96.74 12.63C96.68 12.63 96.63 12.66 96.54 12.74C96.46 12.82 96.33 12.91 96.19 13.01C96.05 13.10 95.86 13.17 95.63 13.26C95.41 13.34 95.12 13.38 94.78 13.38C94.42 13.38 94.08 13.31 93.79 13.17C93.49 13.03 93.24 12.85 93.03 12.59C92.82 12.33 92.65 12.01 92.54 11.63C92.43 11.26 92.37 10.82 92.37 10.33C92.37 9.86 92.43 9.44 92.54 9.06C92.65 8.68 92.82 8.36 93.03 8.09C93.24 7.83 93.51 7.62 93.81 7.48C94.12 7.34 94.47 7.27 94.88 7.27C95.23 7.27 95.62 7.35 96.07 7.50C96.08 7.69 96.08 7.87 96.10 8.04C96.11 8.20 96.12 8.33 96.14 8.43C96.15 8.53 96.15 8.58 96.15 8.60C96.17 8.82 96.26 8.93 96.46 8.93L96.80 8.93L96.80 7.18L96.43 7.07C96.19 7.00 95.90 6.92 95.58 6.85C95.26 6.78 95.00 6.75 94.84 6.75C94.33 6.75 93.90 6.82 93.51 7.00C93.11 7.18 92.78 7.42 92.51 7.74C92.25 8.06 92.05 8.44 91.91 8.88C91.77 9.31 91.69 9.80 91.69 10.33C91.69 10.89 91.76 11.40 91.91 11.84C92.05 12.29 92.26 12.66 92.53 12.96C92.79 13.27 93.11 13.51 93.48 13.66C93.84 13.83 94.23 13.92 94.68 13.92C94.95 13.92 95.20 13.89 95.44 13.83C95.68 13.78 95.90 13.72 96.11 13.64C96.32 13.55 96.49 13.44 96.66 13.31C96.82 13.19 96.95 13.06 97.06 12.92ZM108.30 6.73C107.80 6.73 107.35 6.83 106.96 7.00C106.57 7.17 106.23 7.41 105.95 7.71C105.67 8.02 105.48 8.40 105.34 8.85C105.20 9.30 105.11 9.79 105.11 10.33C105.11 10.88 105.20 11.37 105.34 11.80C105.48 12.24 105.67 12.63 105.95 12.94C106.23 13.24 106.57 13.48 106.96 13.65C107.35 13.82 107.80 13.90 108.30 13.90C108.81 13.90 109.24 13.82 109.63 13.65C110.03 13.48 110.36 13.24 110.63 12.94C110.89 12.63 111.12 12.24 111.26 11.80C111.40 11.37 111.47 10.88 111.47 10.33C111.47 9.79 111.40 9.30 111.26 8.85C111.12 8.40 110.89 8.02 110.63 7.71C110.36 7.41 110.03 7.17 109.63 7.00C109.24 6.83 108.81 6.73 108.30 6.73ZM108.30 13.38C107.88 13.38 107.52 13.31 107.21 13.17C106.90 13.03 106.64 12.82 106.43 12.56C106.22 12.29 106.08 11.97 105.97 11.59C105.85 11.21 105.81 10.79 105.81 10.33C105.81 9.87 105.85 9.45 105.97 9.07C106.08 8.69 106.22 8.37 106.43 8.11C106.64 7.84 106.90 7.62 107.21 7.48C107.52 7.34 107.88 7.27 108.30 7.27C108.72 7.27 109.07 7.34 109.38 7.48C109.69 7.62 109.96 7.84 110.17 8.11C110.38 8.37 110.53 8.69 110.63 9.07C110.73 9.45 110.78 9.87 110.78 10.33C110.78 10.79 110.73 11.21 110.63 11.59C110.53 11.97 110.38 12.29 110.17 12.56C109.96 12.82 109.69 13.03 109.38 13.17C109.07 13.31 108.72 13.38 108.30 13.38ZM122.33 6.73C121.95 6.73 121.62 6.79 121.31 6.90C121.00 7.01 120.75 7.15 120.53 7.35C120.30 7.55 120.13 7.77 120.02 8.05C119.91 8.33 119.84 8.64 119.84 8.97C119.84 9.39 119.94 9.76 120.12 10.08C120.30 10.40 120.55 10.65 120.89 10.85C120.75 10.92 120.64 11.00 120.53 11.10C120.41 11.20 120.33 11.28 120.26 11.40C120.19 11.51 120.13 11.61 120.09 11.72C120.05 11.83 120.04 11.93 120.04 12.03C120.04 12.29 120.09 12.49 120.23 12.64C120.37 12.80 120.55 12.89 120.79 12.98C120.37 13.12 120.02 13.33 119.78 13.59C119.55 13.86 119.42 14.18 119.42 14.55C119.42 14.80 119.49 15.05 119.62 15.27C119.74 15.50 119.92 15.69 120.18 15.86C120.43 16.03 120.74 16.17 121.10 16.27C121.46 16.37 121.90 16.42 122.39 16.42C122.86 16.42 123.31 16.35 123.70 16.23C124.10 16.10 124.40 15.95 124.68 15.74C124.96 15.53 125.17 15.29 125.31 15.02C125.45 14.76 125.52 14.49 125.52 14.20C125.52 13.89 125.47 13.64 125.33 13.44C125.19 13.24 124.99 13.12 124.77 13.01C124.54 12.89 124.26 12.82 123.97 12.78C123.68 12.74 123.38 12.71 123.07 12.70C122.77 12.68 122.46 12.66 122.16 12.64C121.87 12.63 121.60 12.61 121.38 12.56C121.16 12.50 120.96 12.43 120.82 12.32C120.68 12.21 120.61 12.05 120.61 11.86C120.61 11.72 120.67 11.56 120.78 11.41C120.89 11.26 121.04 11.13 121.24 11.02C121.56 11.14 121.93 11.19 122.33 11.19C122.70 11.19 123.03 11.14 123.34 11.03C123.65 10.92 123.90 10.78 124.12 10.58C124.35 10.39 124.50 10.16 124.63 9.88C124.75 9.60 124.81 9.31 124.81 8.97C124.81 8.72 124.78 8.48 124.71 8.26C124.64 8.04 124.53 7.84 124.40 7.66L125.47 7.57C125.59 7.56 125.66 7.50 125.66 7.39L125.66 7.15L123.87 7.15C123.66 7.01 123.42 6.92 123.17 6.85C122.92 6.78 122.64 6.73 122.33 6.73ZM124.92 14.29C124.92 14.53 124.85 14.74 124.73 14.94C124.60 15.13 124.42 15.33 124.19 15.47C123.97 15.61 123.70 15.72 123.40 15.81C123.09 15.89 122.75 15.92 122.40 15.92C122.02 15.92 121.69 15.88 121.39 15.81C121.10 15.74 120.83 15.62 120.64 15.50C120.44 15.37 120.29 15.22 120.18 15.05C120.06 14.88 120.02 14.69 120.02 14.48C120.02 14.31 120.06 14.17 120.12 14.03C120.18 13.89 120.26 13.76 120.37 13.65C120.48 13.54 120.60 13.43 120.75 13.34C120.90 13.26 121.07 13.17 121.25 13.10C121.49 13.15 121.74 13.17 122.02 13.19C122.30 13.20 122.56 13.22 122.84 13.23C123.12 13.24 123.37 13.26 123.62 13.29C123.87 13.31 124.10 13.38 124.29 13.45C124.49 13.52 124.63 13.62 124.74 13.76C124.85 13.90 124.92 14.07 124.92 14.29ZM122.33 10.74C122.04 10.74 121.79 10.70 121.55 10.61C121.31 10.53 121.11 10.40 120.95 10.25C120.78 10.09 120.67 9.91 120.58 9.70C120.50 9.49 120.46 9.25 120.46 8.99C120.46 8.72 120.50 8.48 120.58 8.26C120.67 8.04 120.78 7.87 120.95 7.71C121.11 7.56 121.31 7.43 121.55 7.35C121.79 7.27 122.04 7.22 122.33 7.22C122.63 7.22 122.89 7.27 123.12 7.35C123.34 7.43 123.54 7.56 123.70 7.71C123.87 7.87 124.00 8.04 124.08 8.26C124.17 8.48 124.21 8.71 124.21 8.97C124.21 9.24 124.17 9.49 124.08 9.70C124.00 9.91 123.87 10.09 123.72 10.25C123.56 10.40 123.37 10.53 123.13 10.61C122.89 10.70 122.63 10.74 122.33 10.74ZM141.16 13.29L141.09 13.29L140.98 13.29C140.94 13.29 140.87 13.27 140.77 13.27C140.67 13.27 140.56 13.26 140.43 13.26L140.43 9.37C140.43 8.96 140.38 8.60 140.28 8.27C140.18 7.95 140.04 7.67 139.85 7.45C139.65 7.22 139.41 7.06 139.12 6.93C138.82 6.80 138.49 6.75 138.11 6.75C137.59 6.75 137.12 6.87 136.70 7.11C136.28 7.36 135.91 7.67 135.59 8.08L135.53 7.03C135.52 6.92 135.45 6.86 135.32 6.86L134.96 6.86L133.95 6.86L133.95 7.13C133.95 7.28 134.04 7.36 134.22 7.38L134.30 7.38C134.33 7.38 134.36 7.39 134.40 7.39L134.61 7.39C134.71 7.39 134.83 7.41 134.96 7.41L134.96 13.26C134.79 13.26 134.65 13.29 134.54 13.29L134.32 13.29L134.22 13.29C134.04 13.30 133.95 13.38 133.95 13.54L133.95 13.82L134.96 13.82L135.62 13.82L136.63 13.82L136.63 13.54C136.63 13.38 136.54 13.30 136.36 13.29L136.28 13.29L136.18 13.29C136.14 13.29 136.07 13.27 135.97 13.27C135.87 13.27 135.74 13.26 135.62 13.26L135.62 8.60C135.93 8.19 136.28 7.87 136.67 7.63C137.06 7.39 137.48 7.28 137.94 7.28C138.56 7.28 139.02 7.46 139.31 7.83C139.61 8.20 139.76 8.71 139.76 9.37L139.76 13.82L140.43 13.82L141.44 13.82L141.44 13.54C141.44 13.38 141.34 13.30 141.16 13.29ZM150.64 4.89C150.70 4.94 150.77 4.98 150.84 5.01C150.91 5.04 150.99 5.07 151.07 5.07C151.16 5.07 151.24 5.04 151.31 5.01C151.38 4.98 151.45 4.94 151.51 4.89C151.56 4.83 151.62 4.76 151.65 4.69C151.68 4.62 151.70 4.54 151.70 4.45C151.70 4.37 151.68 4.30 151.65 4.21C151.62 4.14 151.56 4.07 151.51 4.02C151.45 3.96 151.38 3.91 151.31 3.88C151.24 3.85 151.16 3.84 151.07 3.84C150.99 3.84 150.91 3.85 150.84 3.88C150.77 3.91 150.70 3.96 150.64 4.02C150.58 4.07 150.54 4.14 150.51 4.21C150.49 4.28 150.46 4.37 150.46 4.45C150.46 4.54 150.49 4.62 150.51 4.69C150.54 4.76 150.58 4.83 150.64 4.89ZM152.14 13.29L152.07 13.29L151.96 13.29C151.91 13.29 151.84 13.27 151.75 13.27C151.65 13.27 151.54 13.26 151.41 13.26L151.41 6.85L150.74 6.85L149.73 6.85L149.73 7.13C149.73 7.28 149.83 7.36 150.01 7.38L150.08 7.38C150.11 7.38 150.15 7.39 150.19 7.39L150.40 7.39C150.50 7.39 150.61 7.41 150.74 7.41L150.74 13.26C150.58 13.26 150.44 13.29 150.33 13.29L150.09 13.29L150.01 13.29C149.83 13.30 149.73 13.38 149.73 13.54L149.73 13.82L150.74 13.82L151.41 13.82L152.42 13.82L152.42 13.54C152.42 13.38 152.32 13.30 152.14 13.29ZM165.75 12.07C165.55 12.07 165.45 12.18 165.44 12.40C165.44 12.42 165.44 12.46 165.42 12.54C165.41 12.63 165.41 12.73 165.40 12.87C165.38 13.01 165.38 13.15 165.37 13.30L161.55 13.30L165.90 7.41C165.97 7.32 166.00 7.24 166.00 7.14L166.00 6.86L160.97 6.86L160.97 6.92L160.97 8.67L161.31 8.67C161.50 8.67 161.60 8.55 161.62 8.33C161.62 8.32 161.62 8.26 161.63 8.18C161.64 8.09 161.64 7.98 161.66 7.84C161.67 7.70 161.67 7.53 161.69 7.38L165.21 7.38L160.85 13.30C160.78 13.40 160.73 13.47 160.73 13.55L160.73 13.82L165.72 13.82L165.83 13.82L166.08 13.82L166.08 12.07L165.80 12.07ZM177.65 6.73C177.16 6.73 176.71 6.83 176.32 7.00C175.92 7.17 175.60 7.41 175.34 7.71C175.07 8.02 174.86 8.39 174.72 8.81C174.58 9.23 174.50 9.69 174.50 10.19C174.50 10.78 174.58 11.31 174.73 11.77C174.89 12.24 175.10 12.61 175.38 12.94C175.66 13.26 175.99 13.50 176.39 13.66C176.78 13.83 177.21 13.90 177.69 13.90C177.95 13.90 178.22 13.89 178.47 13.83C178.72 13.78 178.98 13.71 179.20 13.62C179.42 13.54 179.63 13.44 179.82 13.31C180.00 13.19 180.15 13.06 180.26 12.92L180.08 12.70C180.05 12.66 180.00 12.63 179.94 12.63C179.90 12.63 179.82 12.66 179.72 12.74C179.62 12.82 179.48 12.91 179.30 13.01C179.13 13.10 178.91 13.17 178.65 13.26C178.40 13.34 178.09 13.38 177.74 13.38C177.35 13.38 177.00 13.31 176.68 13.17C176.36 13.03 176.09 12.84 175.87 12.57C175.64 12.31 175.48 11.97 175.35 11.58C175.22 11.19 175.17 10.71 175.17 10.19L175.17 10.07L180.19 10.07C180.26 10.07 180.31 10.05 180.33 10.01C180.36 9.97 180.39 9.90 180.39 9.80C180.39 9.31 180.32 8.88 180.18 8.50C180.04 8.12 179.86 7.78 179.61 7.53C179.37 7.28 179.07 7.08 178.74 6.94C178.40 6.80 178.04 6.73 177.65 6.73ZM177.66 7.24C177.98 7.24 178.26 7.29 178.53 7.41C178.79 7.52 179.02 7.67 179.20 7.88C179.38 8.09 179.54 8.33 179.63 8.62C179.73 8.92 179.79 9.25 179.79 9.63L175.20 9.63C175.24 9.27 175.32 8.93 175.45 8.64C175.57 8.34 175.74 8.09 175.95 7.88C176.16 7.67 176.41 7.52 176.69 7.41C176.97 7.29 177.30 7.24 177.66 7.24ZM204.72 7.63C204.25 7.04 203.57 6.73 202.72 6.73C202.22 6.73 201.75 6.86 201.35 7.10C200.94 7.34 200.59 7.66 200.28 8.06L200.27 3.63L199.61 3.63L198.60 3.63L198.60 3.91C198.60 4.06 198.69 4.14 198.87 4.16L198.95 4.16C198.98 4.16 199.01 4.17 199.05 4.17L199.26 4.17C199.36 4.17 199.49 4.19 199.61 4.19L199.61 13.16L199.61 13.51C200.84 13.78 201.77 13.90 202.40 13.90C202.89 13.90 203.32 13.80 203.70 13.62C204.08 13.44 204.39 13.19 204.65 12.87C204.92 12.54 205.10 12.15 205.24 11.72C205.38 11.28 205.44 10.79 205.44 10.29C205.44 9.10 205.20 8.22 204.72 7.63ZM204.60 11.55C204.48 11.93 204.33 12.26 204.12 12.53C203.91 12.81 203.66 13.01 203.35 13.16C203.04 13.31 202.68 13.38 202.27 13.38C201.91 13.38 201.24 13.29 200.27 13.09L200.27 8.62C200.56 8.20 200.90 7.87 201.28 7.63C201.66 7.39 202.06 7.27 202.52 7.27C203.24 7.27 203.80 7.52 204.18 8.01C204.55 8.50 204.75 9.25 204.75 10.29C204.75 10.75 204.71 11.17 204.60 11.55ZM216.85 6.73C216.36 6.73 215.91 6.83 215.52 7.00C215.12 7.17 214.80 7.41 214.54 7.71C214.27 8.02 214.06 8.39 213.92 8.81C213.78 9.23 213.70 9.69 213.70 10.19C213.70 10.78 213.78 11.31 213.93 11.77C214.09 12.24 214.30 12.61 214.58 12.94C214.86 13.26 215.19 13.50 215.59 13.66C215.98 13.83 216.41 13.90 216.89 13.90C217.15 13.90 217.42 13.89 217.67 13.83C217.92 13.78 218.18 13.71 218.40 13.62C218.62 13.54 218.83 13.44 219.02 13.31C219.20 13.19 219.35 13.06 219.46 12.92L219.28 12.70C219.25 12.66 219.20 12.63 219.14 12.63C219.10 12.63 219.02 12.66 218.92 12.74C218.82 12.82 218.68 12.91 218.50 13.01C218.33 13.10 218.11 13.17 217.85 13.26C217.60 13.34 217.29 13.38 216.94 13.38C216.55 13.38 216.20 13.31 215.88 13.17C215.56 13.03 215.29 12.84 215.07 12.57C214.84 12.31 214.68 11.97 214.55 11.58C214.42 11.19 214.37 10.71 214.37 10.19L214.37 10.07L219.39 10.07C219.46 10.07 219.51 10.05 219.53 10.01C219.56 9.97 219.59 9.90 219.59 9.80C219.59 9.31 219.52 8.88 219.38 8.50C219.24 8.12 219.06 7.78 218.81 7.53C218.57 7.28 218.27 7.08 217.94 6.94C217.60 6.80 217.24 6.73 216.85 6.73ZM216.86 7.24C217.18 7.24 217.46 7.29 217.73 7.41C217.99 7.52 218.22 7.67 218.40 7.88C218.58 8.09 218.74 8.33 218.83 8.62C218.93 8.92 218.99 9.25 218.99 9.63L214.40 9.63C214.44 9.27 214.52 8.93 214.65 8.64C214.77 8.34 214.94 8.09 215.15 7.88C215.36 7.67 215.61 7.52 215.89 7.41C216.17 7.29 216.50 7.24 216.86 7.24ZM230.03 13.93C230.33 13.93 230.61 13.86 230.89 13.75C231.15 13.64 231.38 13.48 231.56 13.29L231.38 12.98C231.34 12.94 231.31 12.92 231.27 12.92C231.24 12.92 231.18 12.94 231.13 12.99C231.07 13.05 231 13.09 230.92 13.15C230.83 13.20 230.72 13.26 230.59 13.31C230.47 13.37 230.34 13.38 230.17 13.38C230.03 13.38 229.89 13.36 229.78 13.31C229.67 13.27 229.57 13.20 229.49 13.12C229.40 13.03 229.33 12.92 229.28 12.78C229.22 12.64 229.21 12.49 229.21 12.29L229.21 7.57L231.41 7.57L231.41 7.07L229.21 7.07L229.21 4.41L228.89 4.41C228.83 4.41 228.80 4.44 228.77 4.47C228.75 4.49 228.72 4.54 228.72 4.58L228.55 7.07L227.36 7.15L227.36 7.41C227.36 7.46 227.37 7.49 227.40 7.52C227.43 7.55 227.49 7.57 227.54 7.57L228.54 7.57L228.54 12.33C228.54 12.88 228.66 13.27 228.93 13.54C229.19 13.80 229.56 13.93 230.03 13.93ZM242.00 13.93C242.30 13.93 242.58 13.86 242.86 13.75C243.12 13.64 243.35 13.48 243.53 13.29L243.35 12.98C243.31 12.94 243.28 12.92 243.24 12.92C243.21 12.92 243.15 12.94 243.10 12.99C243.04 13.05 242.97 13.09 242.89 13.15C242.80 13.20 242.69 13.26 242.56 13.31C242.44 13.37 242.31 13.38 242.14 13.38C242.00 13.38 241.86 13.36 241.75 13.31C241.64 13.27 241.54 13.20 241.46 13.12C241.37 13.03 241.30 12.92 241.25 12.78C241.19 12.64 241.18 12.49 241.18 12.29L241.18 7.57L243.38 7.57L243.38 7.07L241.18 7.07L241.18 4.41L240.86 4.41C240.80 4.41 240.77 4.44 240.74 4.47C240.72 4.49 240.69 4.54 240.69 4.58L240.52 7.07L239.33 7.15L239.33 7.41C239.33 7.46 239.34 7.49 239.37 7.52C239.40 7.55 239.46 7.57 239.51 7.57L240.51 7.57L240.51 12.33C240.51 12.88 240.63 13.27 240.90 13.54C241.16 13.80 241.53 13.93 242.00 13.93ZM254.74 6.73C254.25 6.73 253.81 6.83 253.41 7.00C253.02 7.17 252.70 7.41 252.43 7.71C252.17 8.02 251.96 8.39 251.82 8.81C251.68 9.23 251.59 9.69 251.59 10.19C251.59 10.78 251.68 11.31 251.83 11.77C251.99 12.24 252.20 12.61 252.48 12.94C252.76 13.26 253.09 13.50 253.48 13.66C253.88 13.83 254.31 13.90 254.79 13.90C255.05 13.90 255.32 13.89 255.57 13.83C255.82 13.78 256.07 13.71 256.30 13.62C256.52 13.54 256.73 13.44 256.91 13.31C257.10 13.19 257.25 13.06 257.36 12.92L257.18 12.70C257.15 12.66 257.10 12.63 257.04 12.63C257.00 12.63 256.91 12.66 256.82 12.74C256.72 12.82 256.58 12.91 256.40 13.01C256.23 13.10 256.00 13.17 255.75 13.26C255.50 13.34 255.19 13.38 254.84 13.38C254.45 13.38 254.10 13.31 253.78 13.17C253.46 13.03 253.19 12.84 252.97 12.57C252.74 12.31 252.57 11.97 252.45 11.58C252.32 11.19 252.27 10.71 252.27 10.19L252.27 10.07L257.29 10.07C257.36 10.07 257.40 10.05 257.43 10.01C257.46 9.97 257.49 9.90 257.49 9.80C257.49 9.31 257.42 8.88 257.28 8.50C257.14 8.12 256.96 7.78 256.70 7.53C256.47 7.28 256.17 7.08 255.84 6.94C255.50 6.80 255.14 6.73 254.74 6.73ZM254.76 7.24C255.08 7.24 255.36 7.29 255.63 7.41C255.89 7.52 256.12 7.67 256.30 7.88C256.48 8.09 256.63 8.33 256.73 8.62C256.83 8.92 256.89 9.25 256.89 9.63L252.29 9.63C252.34 9.27 252.42 8.93 252.55 8.64C252.67 8.34 252.84 8.09 253.05 7.88C253.26 7.67 253.51 7.52 253.79 7.41C254.07 7.29 254.39 7.24 254.76 7.24ZM270.24 6.80C270.06 6.76 269.88 6.73 269.67 6.73C269.12 6.73 268.66 6.89 268.28 7.21C267.90 7.53 267.61 7.98 267.39 8.54L267.33 7.07C267.33 6.99 267.30 6.93 267.27 6.90C267.25 6.87 267.19 6.86 267.11 6.86L266.76 6.86L266.76 6.86L265.75 6.86L265.75 7.13C265.75 7.31 265.85 7.36 266.01 7.38C266.10 7.38 266.18 7.38 266.76 7.41L266.76 13.26C266.18 13.29 266.10 13.29 266.01 13.29C265.85 13.30 265.75 13.36 265.75 13.54L265.75 13.82L266.76 13.82L267.41 13.82L267.41 13.82L268.42 13.82L268.42 13.54C268.42 13.36 268.32 13.30 268.16 13.29C268.07 13.29 267.99 13.29 267.41 13.26L267.41 9.30C267.62 8.68 267.90 8.20 268.24 7.88C268.58 7.56 269.01 7.39 269.54 7.39C269.68 7.39 269.81 7.41 269.92 7.42C270.03 7.43 270.14 7.45 270.21 7.48C270.30 7.50 270.34 7.53 270.40 7.55C270.45 7.56 270.49 7.57 270.52 7.57C270.61 7.57 270.65 7.53 270.66 7.46L270.75 7.00C270.59 6.92 270.42 6.85 270.24 6.80ZM279.94 3.91L279.30 3.91L279.30 7.91L279.30 8.51C279.30 8.69 279.30 8.89 279.31 9.09C279.31 9.28 279.34 9.49 279.36 9.70C279.37 9.91 279.37 10.14 279.38 10.40L279.85 10.40C279.86 10.14 279.87 9.91 279.89 9.70C279.90 9.49 279.92 9.28 279.92 9.09C279.92 8.89 279.94 8.69 279.94 8.51L279.94 7.91ZM278.95 13.27C278.95 13.45 279.01 13.61 279.13 13.73C279.26 13.86 279.41 13.92 279.59 13.92C279.68 13.92 279.76 13.90 279.85 13.87C279.93 13.85 280 13.79 280.06 13.73C280.11 13.68 280.17 13.62 280.20 13.54C280.22 13.45 280.25 13.37 280.25 13.27C280.25 13.19 280.22 13.10 280.20 13.02C280.17 12.94 280.11 12.88 280.06 12.82C280 12.77 279.93 12.71 279.85 12.68C279.76 12.66 279.68 12.63 279.59 12.63C279.50 12.63 279.43 12.66 279.34 12.68C279.26 12.71 279.19 12.77 279.13 12.82C279.08 12.88 279.02 12.94 278.99 13.02C278.96 13.10 278.95 13.19 278.95 13.27Z"></path></g></svg>